<svg xmlns="http://www.w3.org/2000/svg" x="0px" y="0px" width="100%" viewBox="0 0 200 200" style="vertical-align: middle; max-width: 100%; width: 100%;"><path fill="rgb(255,208,22)" d="M100.029,0.036c-55.145,0-99.991,44.86-99.991,99.996c0,55.14,44.846,99.991,99.991,99.991   c55.129,0,99.988-44.852,99.988-99.991C200.018,44.881,155.158,0.036,100.029,0.036 M69.19,92.606v67.174c0,0,0,2.729-3.519,2.729   H48.506c0,0-4.306,0-4.306-3.915l-4.306-66.772c0,0-0.786-5.077,3.512-5.077h21.099C64.506,86.746,69.597,87.53,69.19,92.606    M147.709,150.029c0,0-3.896,12.494-8.595,12.494H89.12c-3.515,0-11.71-2.342-11.71-8.968V87.53c0,0,24.217-17.985,24.217-41.404   c0.757-1.164-1.19-8.582,8.191-8.582c0,0,21.877,1.541,8.98,49.202h33.196c0,0,8.224-0.385,8.224,7.819   C160.219,94.564,160.219,107.859,147.709,150.029"></path></svg>