<svg fill="none" height="129" viewBox="0 0 128 129" width="128" xmlns="http://www.w3.org/2000/svg"><path d="m81.2728 101.451-31.6692-15.2824-21.0352 6.4791-20.80284-10.0237 22.28464-28.5894-3.8061-7.1183 12.2608-11.3021 19.0015-.7844 21.994-8.2224 39.1656 42.1286-18.508 28.0664z" fill="#ff1e1e"/><path d="m30.486 73.6172c8.3095 2.4986 16.9968.1743 26.1198-7.0021l42.7097 27.6596-8.7163 5.375h-14.2365l-22.5171-11.0987-20.5704 5.2298-23.35955-10.6339 16.64805-8.6zm15.1082-32.7442c2.9926-.7844 9.2102 6.4791 9.5008 8.2514 1.104 6.1595 1.5689 10.3143-6.0143 16.3866-2.2415 1.9056-4.8709 3.3006-7.7055 4.0883-2.8347.7877-5.8068.9492-8.7101.4732l1.5108-6.7696-5.4912-10.9244c3.9817-5.8195 10.0081-9.927 16.8805-11.5055z" fill="#bf0000"/><path d="m32.6069 95.9308-.4939.1453-25.71298-11.5636.58109-1.3074c4.09669-9.4717 10.16899-17.7812 18.10079-24.9286 1.1213-1.0124 2.2644-2.0005 3.4284-2.9635l-1.3365-2.5277-1.627-3.0507-.523-1.0169-.3487-.6683.3196-.6682c3.5737-7.2636 9.1521-11.3311 18.2461-13.8008 5.5493-1.4527 10.198-1.3655 13.946.4068 6.931-3.9163 14.3862-6.8221 22.1393-8.6291l.2906-.0581 41.9833 45.034-.465.8717c-3.532 7.0772-7.154 14.109-10.866 21.0933-5.027 9.472-13.3651 12.9-24.2023 11.331-8.1352-1.162-16.9967-4.939-27.6015-10.9823l-3.196-1.7723c-4.9101.7263-12.4933 2.4115-22.6913 5.0554zm-5.6074-35.4752c-7.0802 6.2929-12.7871 13.9779-16.7643 22.5751l17.7812 8.019c5.9353-2.1518 12.0003-3.9276 18.1589-5.3169-6.1549-3.456-12.3144-6.9038-18.4785-10.3433l-1.3365-.7554 6.7696-10.6048-3.225-6.1014c-.9843.8242-1.9529 1.6669-2.9054 2.5277zm10.8081 14.1204h.0291c10.9825-1.9467 19.5825-10.6629 22.6623-16.1833.5842-.8765 1.1461-1.7678 1.6851-2.6729l15.0501-26.788c-7.6719 2.04-14.9966 5.2127-21.7325 9.4135l-3.1379-1.4527c.5202-.3337 1.0432-.663 1.5689-.9878-3.3121-.6787-6.7427-.4987-9.9656.523-8.0189 2.1209-12.8419 5.5784-16.0379 11.5926l.2034.3486 1.598 3.0507 5.6946 10.7501c1.8198.3692 3.6932.3889 5.5203.0581 2.7892-.4068 5.346-1.4527 7.4088-3.1088 4.0967-3.3122 6.2757-5.8108 6.4501-8.019.2033-2.6148-1.5109-6.1304-6.3048-12.8129 6.7696 4.5325 11.3893 11.796 7.6703 17.0258v.0291c-.3824.5676-.7997 1.111-1.2493 1.627-1.2203 1.3946-2.7021 2.7601-4.7359 4.4162-2.5562 1.9926-5.5928 3.2754-8.8034 3.719-1.8358.298-3.7051.3273-5.5493.0871l-5.3751 8.4258c4.7967 2.6681 9.5906 5.3411 14.3819 8.0189v-.0581c14.8176-.7844 24.4055-9.7622 33.6738-24.4927-7.0892 15.0501-15.8636 24.6961-29.4029 26.9623 2.8473 1.569 5.4041 3.0217 7.7285 4.3582 14.5271-.9588 23.3015-8.9197 32.4826-23.5049-7.0021 14.8758-15.0792 23.6501-28.1826 25.9164 1.4118.7963 2.8356 1.5712 4.271 2.3243-.0487-.0482-.0971-.0966-.1453-.1453.5285.2981 1.0612.5886 1.598.8717.7994.3964 1.6033.7838 2.4115 1.1621 14.469-.9297 22.546-7.8737 31.7276-22.4589-6.741 14.3237-13.9464 22.2265-26.0621 24.6961 8.8616 2.6149 16.038 1.0169 23.2434-3.4865 2.4697-1.598 8.3967-10.0237 17.7227-25.3353l-35.9106-38.5259-15.2825 27.2529c-2.3731 4.1136-5.3176 7.8699-8.7454 11.1568-5.0896 4.2051-11.5302 6.4242-18.1298 6.2467z" fill="#3c0000"/></svg>